<?xml version="1.0" encoding="utf-8"?>
<!-- Generator: Adobe Illustrator 19.0.0, SVG Export Plug-In . SVG Version: 6.00 Build 0)  -->
<svg version="1.1" id="Layer_1" xmlns="http://www.w3.org/2000/svg" xmlns:xlink="http://www.w3.org/1999/xlink" x="0px" y="0px"
	 viewBox="0 0 90 40" enable-background="new 0 0 90 40" xml:space="preserve">
<g id="links2" style="fill:currentColor">
	<g id="XMLID_234_">
		<path id="XMLID_251_" d="M5.8,0.7l1.9-0.3c0.4,0,0.8,0.1,1,0.4c0.1,1.3,0.4,2.9,0.7,5s0.7,3.6,0.9,4.8c0.2-0.8,0.5-2.5,0.9-5
			c0.4-2.5,0.7-4.1,0.8-4.7c0.5-0.2,1.1-0.3,1.8-0.3c0.7,0,1.1,0,1.4,0.1v0c-0.6,3.7-1.6,9-3.2,15.8c-1.6,6.8-2.6,11.8-3.2,15.1
			c-0.1,0-0.3,0-0.5,0l-2.1,0.1c-0.2,0-0.4,0-0.5,0h0c0.5-3.1,1.4-8.2,2.9-15.4v-0.1c-0.2-1.7-0.7-4.3-1.4-7.7C6.5,5,6,2.4,5.8,0.7z
			"/>
		<path id="XMLID_248_" d="M19.4,32.1l-2.3-0.1c-0.7-0.3-1.4-0.9-1.9-2c-0.4-0.7-0.6-1.5-0.8-2.7c-0.2-1.1-0.3-2.2-0.3-3.4
			s0-2.3,0-3.6s0-2.4,0-3.5c0-1.1,0-1.9,0-2.5c0-0.6,0.1-1,0.1-1.3c0-0.3,0.1-0.7,0.2-1c0.1-0.4,0.1-0.6,0.1-0.8
			c0.2-0.9,0.6-1.5,1.2-1.9s1.1-0.6,1.6-0.6c0.4,0,0.8,0,1,0l0.7,0c1.3,0,2.3,0.7,2.9,2c0.5,0.7,0.8,3.4,0.9,8c0,0.4,0,0.6,0,0.8
			c-0.1,5.3-0.3,8.5-0.5,9.7c-0.1,0.4-0.1,0.6-0.2,0.8c-0.2,0.7-0.6,1.2-1,1.5s-0.8,0.5-1,0.5S19.6,32.1,19.4,32.1z M18.4,25.7
			c0.9,0,1.4-0.7,1.6-2c0.1-1.6,0.1-2.8,0.1-3.7c0-0.9,0-1.5-0.1-2c-0.1-1.1-0.3-1.8-0.6-2.3c-0.2-0.3-0.5-0.4-0.7-0.4
			s-0.5,0.1-0.8,0.2c-0.3,0.1-0.5,0.4-0.7,0.9c-0.1,0.1-0.2,0.5-0.2,1.1S17,19.2,17,20.5l0,2.9c0,0.8,0.1,1.4,0.4,1.8
			S18,25.7,18.4,25.7z"/>
		<path id="XMLID_246_" d="M30.8,31.5l-1,0.2c-0.1,0-0.2-0.1-0.3-0.2c0-0.4,0-0.8,0-1.4v-1c-0.3,0.3-0.5,0.6-0.5,0.7
			c-0.7,1-1.4,1.6-2.3,1.6c-0.8,0-1.5-0.5-2.1-1.4c-0.3-0.5-0.4-2-0.5-4.4c0-1.1,0-2.3,0-3.7l0.1-9.9c0-1.1,0-2,0-2.6
			c0.4-0.1,1.3-0.2,2.7-0.2c0,0.9,0,2.6,0,5s0,4,0,4.6s0,1.1,0,1.4s0,0.6,0,0.7c0,0.2,0,0.4,0,0.7c0,0.3,0,0.5,0.1,0.7
			c0,0.2,0,0.4,0.1,0.6c0.2,0.9,0.5,1.4,1.2,1.4c0.3,0,0.6-0.2,0.8-0.6s0.4-1.1,0.5-2.1c0-0.3,0-0.7,0-1.2l-0.1-7.6
			c0-1.4,0-2.5,0.1-3.1V9.4c0.1-0.2,0.4-0.3,0.9-0.3l1.2,0c0.3,0,0.5,0,0.7,0l0.1,17.4c0,2.8,0,4.4,0,5c-0.2-0.1-0.5-0.1-0.8-0.1
			L30.8,31.5z"/>
		<path id="XMLID_244_" d="M35.5,9.4l1.2-0.2c0.1,0,0.2,0,0.2,0.1c0,0.3,0,0.6,0,0.8c0,0.2,0,0.4,0,0.7c0.1-0.1,0.4-0.4,1-0.8
			c0.7-0.4,1.3-0.7,1.9-0.7s1,0,1.1,0.1v7.9c-0.7-0.5-1.2-0.8-1.5-0.8c-0.3-0.1-0.7-0.1-1-0.1s-0.7,0.1-1,0.4
			c-0.4,0.3-0.6,1.2-0.6,2.5c0,0.1,0,1.1,0,2.9s0,4.9,0,9v0.2c-0.1,0.2-0.4,0.3-0.9,0.3l-1.4,0c-0.3,0-0.5,0-0.7,0l-0.1-17.4
			c0-2.8,0-4.4,0-5c0.2,0.1,0.5,0.1,0.8,0.1L35.5,9.4z"/>
		<path id="XMLID_242_" d="M46.5,22.3l2.4,0.1c0,1.3,0.4,2.2,1,2.6c0.2,0.2,0.5,0.3,0.7,0.3s0.5-0.2,0.8-0.7s0.4-1.1,0.4-1.9
			c0-1-0.1-1.7-0.3-2.2c-0.3-0.6-0.6-1-0.8-1.2c-0.2-0.2-0.5-0.3-0.7-0.4c-0.2-0.1-0.3-0.2-0.4-0.2c-0.5-0.2-0.8-0.3-0.9-0.4
			c-0.5-0.2-1-0.7-1.5-1.5c-1-1.9-1.5-4.2-1.5-6.9c0-2.2,0.4-4.2,1.1-6.1c0.5-1.2,1.1-2.1,1.8-2.7c0.6-0.5,1.3-0.7,2-0.7
			c1,0,2,0.4,2.8,1.2c0.7,0.8,1.3,1.9,1.6,3.4c0.2,1,0.3,1.9,0.3,2.9c0,0.9,0,1.8-0.1,2.6h0c-0.6,0.2-1.2,0.3-1.8,0.3
			c-0.6,0-1-0.1-1.5-0.4c0-0.2,0-0.4,0-0.6c0-0.7-0.2-1.3-0.5-1.8c-0.3-0.5-0.6-0.7-0.8-0.7c-1.1,0-1.5,1.1-1.4,3.2
			c0.2,1,0.6,1.7,1.4,1.9c0.8,0.2,1.5,0.7,2.1,1.5c0.7,0.8,1.2,1.9,1.6,3.2c0.6,1.5,0.8,3.1,0.8,4.9c0,1.8-0.2,3.4-0.5,4.7
			c-0.3,1.8-0.9,3-1.6,3.9s-1.5,1.2-2.4,1.2c-0.9,0-1.8-0.4-2.6-1.1c-0.8-0.7-1.5-1.8-2-3.1c-0.5-1.4-0.7-2.8-0.7-4.4
			c0-0.2,0-0.4,0-0.5v-0.3C45.6,22.3,46,22.3,46.5,22.3z"/>
		<path id="XMLID_240_" d="M58.1,0.9l2,0.2c0.2,0,0.4,0,0.5,0v6l0,2.5c0.4,0,1.5-0.1,3.3-0.4c0.1,0.3,0.2,0.9,0.2,1.8L64,14.1
			c0,0.3,0,0.5,0,0.7h-3.4c0,4.2,0,7.2,0,9c0.2,0.7,0.7,1.2,1.3,1.5s1.1,0.4,1.4,0.4s0.6,0,0.7,0c0.1,1.5,0.2,2.7,0.2,3.7
			s-0.1,1.8-0.2,2.3c-0.3,0-0.7,0-1,0c-2.8,0-4.4-1.3-5-4c-0.2-2.9-0.3-6.6-0.3-11.2c0-0.5,0-1,0-1.6c-0.3,0-0.8,0-1.6,0l0.1-5.4
			c0.4,0,0.9,0,1.5,0l0-5.1c0-1.5,0-2.6,0.1-3.5C57.8,0.9,57.9,0.9,58.1,0.9z"/>
		<path id="XMLID_237_" d="M71.9,31.5l-0.9,0.1c-0.2-0.1-0.3-0.4-0.3-0.8s0-0.7,0-1s0-0.6,0-0.7c-0.4,0.7-0.8,1.4-1.3,1.9
			c-0.5,0.5-1,0.7-1.5,0.7c-0.7,0-1.3-0.7-1.8-2.1c-0.9-2.5-1.4-5.8-1.4-9.9c0-2.9,0.4-5.4,1.1-7.3s1.6-2.9,2.6-3c0.5,0,0.8,0,1,0.1
			c0.2,0,0.4,0.2,0.7,0.5s0.4,0.8,0.6,1.5c0-0.4,0-0.8,0-1.3c0-0.5,0.1-0.8,0.1-1c0,0,0.3,0,1,0c1,0.1,1.7,0.2,2.1,0.2
			c0,0.5,0,0.8,0,1.1v0.4c0,0.8,0,1.8,0,3.2l0,10.4c0,2.4,0,4,0,4.7c0,0.7,0,1.3,0,1.7c0,0.4-0.1,0.7-0.3,0.8h-0.3L71.9,31.5z
			 M69.5,15.4c-0.6,0-1,0.3-1.4,0.8c-0.3,0.6-0.6,1.2-0.7,1.9c-0.1,0.7-0.1,1.6-0.1,2.8c0,1.2,0.2,2.2,0.5,3.1
			c0.3,0.9,0.8,1.4,1.4,1.4c0.5,0,0.8-0.3,1.1-0.8c0.2-0.4,0.2-0.9,0.3-1.7s0-1.4,0-2v-0.9c0-2.3-0.1-3.6-0.2-4
			C70.4,15.6,70,15.4,69.5,15.4z"/>
		<path id="XMLID_235_" d="M81.1,9.4l2.2-0.1c0.4,0,0.7,0,1,0.1c-0.5,4-1,7.6-1.3,10.7s-0.5,5.2-0.7,6.2c-0.1,1-0.3,2.1-0.5,3.5
			c-0.2,1.3-0.4,2.4-0.7,3.3s-0.6,1.8-1,2.7c-0.4,0.9-0.9,1.7-1.4,2.2c-1,1.1-2.2,1.6-3.6,1.6c-0.2,0-0.5,0-0.7,0
			c-0.2-1.1-0.3-2.1-0.3-3.1c0-1,0-1.9,0.1-2.8l1.4,0.1c0.6,0,0.9-0.1,1-0.4c0.3-0.5,0.4-1.2,0.4-2c0-1.2-0.4-5.1-1.2-11.6
			c-0.2-1.9-0.5-4-0.8-6.4c-0.3-2.4-0.5-3.7-0.5-3.9c0.2,0.1,0.6,0.1,1,0.1l1.4,0c0.4,0,0.7,0,0.9,0.1c0.1,0.6,0.2,1.9,0.3,3.7
			s0.3,3.4,0.4,4.7c0.3,3.5,0.7,6.1,0.9,7.6c0.2-1.1,0.4-3.8,0.7-8C80.6,13.3,80.8,10.6,81.1,9.4z"/>
	</g>
</g>
</svg>
