<?xml version="1.0" encoding="utf-8"?>
<!-- Generator: Adobe Illustrator 19.0.0, SVG Export Plug-In . SVG Version: 6.00 Build 0)  -->
<svg version="1.1" id="Layer_1" xmlns="http://www.w3.org/2000/svg" xmlns:xlink="http://www.w3.org/1999/xlink" x="0px" y="0px"
	 viewBox="0 0 160.2 152.8" enable-background="new 0 0 160.2 152.8" xml:space="preserve">
<g id="mainOverlay" style="fill:rgba(255,255,255,.8)">
<g id="XMLID_12_">
	<path id="XMLID_88_" d="M149,15.1c-0.2-0.7-0.5-1.5-1-2.5c-0.4-1-0.7-1.8-0.8-2.4c0-0.6-0.5-2-1.5-4.3c-1-2.3-1.5-3.8-1.5-4.4
		c-0.3-0.7-1.7-1-4.4-1c-0.2-0.1-0.7-0.1-1.4-0.1c-0.7,0-1.4,0.2-2,0.7c-0.4,6.4-0.6,14-0.6,23l0.2,30.5c0.2,0.3,0.9,0.6,2,0.8
		c1.1,0.2,2.4,0.3,3.7,0.3c1.4,0,2.3-0.3,2.8-1c-0.1-1.5-0.2-5.1-0.2-10.9s0.1-10.3,0.3-13.7c0.3,1,0.7,2.6,1.3,4.7
		c0.6,2.1,1.1,4,1.6,5.5c0.5,1.6,1.4,4.2,2.7,7.9c1.3,3.7,2.1,5.9,2.3,6.5c0.1,0.1,0.1,0.2,0.2,0.2l5.2,0.4c0.8,0,1.4-0.1,1.8-0.4h0
		l0.3-0.4l-0.1-53.9c-0.2-0.6-1.5-0.8-3.8-0.8c-2.3,0-3.8,0.3-4.6,0.8c-0.1,1.4-0.2,2.8-0.2,4.2l0.3,11.6c0,2-0.1,3.9-0.2,5.5
		C150.8,20.2,149.9,17.8,149,15.1z"/>
	<path id="XMLID_513_" d="M126.2,4.4c-0.3-2-0.6-3.4-1-4c-0.4,0.1-1.5,0.1-3.5,0.1c-2,0.1-3,0.1-3.2,0.2h-0.3c0,0.1-0.1,0.1-0.1,0.1
		C118,1,118,1,118,1.1c-3.2,13.8-5.9,29.9-8.1,48.3c0,0.3-0.1,1.1-0.2,2.3c-0.1,1.3-0.3,2.2-0.4,2.8c0,0,0.1,0.1,0.1,0.2
		c0,0.1,0,0.2,0.1,0.3l7.8,0.2l0.6-0.1c0,0,0.1,0,0.1-0.1l0.1-0.1c0.6-1.3,1.1-3.5,1.4-6.5c0.3-3,0.7-5.1,1-6.1l0.7,0.1
		c0.2,0,0.4-0.1,0.6-0.1l1.9,0.1c0.5,1.3,1,3.4,1.4,6.2c0.4,2.8,0.8,4.8,1.2,6c0.4,0.6,1.8,0.9,4.3,0.9c2.4,0,3.7-0.3,3.9-0.8v-0.2
		c-3.6-22.3-6.2-37.9-7.7-46.8L126.2,4.4z M121.3,32.6c-0.5,0-0.9,0-1.1-0.1c0-0.5,0.2-2.5,0.4-5.9c0.2-3.4,0.7-6.5,1.4-9.3
		c0.2,0.3,0.4,1.1,0.6,2.4c0,0.5,0.1,1.5,0.3,2.9c0.2,1.4,0.5,4.7,0.9,9.8C122.6,32.5,121.8,32.6,121.3,32.6z"/>
	<path id="XMLID_514_" d="M82.8,10.4l0.1,5.2L83.1,32l0.1,9.8v4.4c0,5.5,0.3,8.4,1,8.7c0.4-0.3,0.9-0.4,1.4-0.4l4.2,0.6
		c0.9,0,1.6-0.2,2.1-0.7c0-0.1,0-0.2,0.1-0.2c0.2-1.5,0.3-3.4,0.3-5.5l-0.2-10c0-1.8,0.1-3.5,0.2-4.9c1.1-0.3,2.2-0.5,3.1-0.5
		s1.9,0.1,3,0.4c0.2,2.2,0.4,5.6,0.4,10.3s0.2,8.2,0.5,10.6c0.3,0.2,0.5,0.3,0.7,0.3s0.3,0,0.5-0.1l3.6,0.1c1.5,0,2.7-0.1,3.6-0.5
		l0.2-0.4c-0.6-17.6-1.1-35.4-1.5-53.6l-0.3-0.4h-0.7c-0.4-0.2-1-0.3-1.9-0.3c-0.8,0-1.9,0.1-3.1,0.5c-1.2,0.3-2,0.7-2.4,1.1
		c0.1,2.4,0.2,5.1,0.2,8.1s-0.1,6.8-0.4,11.5c-1.1,0.3-2.1,0.4-3.1,0.4c-1,0-1.9-0.1-2.6-0.3C92,20.8,92,20.3,91.9,20c0,0,0,0,0,0
		c-0.3-2.1-0.4-5.2-0.5-9.4c-0.1-4.2-0.3-7.2-0.5-9.2c-0.2-0.5-0.9-0.7-2-0.7L85.5,1l-2.3-0.1L83,1.3V1.2
		C82.9,1.2,82.8,4.3,82.8,10.4z"/>
	<path id="XMLID_515_" d="M66,12.4l2.4,0.1c0.9,0.4,1.6,1.2,2.2,2.6c0.2,0.5,0.4,1.1,0.7,2c0.3,0.9,0.4,1.5,0.6,1.8
		c0.6,0.3,1.5,0.5,2.6,0.5c1.1,0,1.8-0.1,2.2-0.2l0.9,0.1c0.8,0,1.4-0.1,1.8-0.5l0.3-3c0-4.2-1.1-7.8-3.2-10.7
		c-2.1-2.9-4.9-4.3-8.4-4.3c-3.5,0-6.1,0.7-8,2.1c-2.3,1.8-3.9,5.3-4.6,10.6c-0.4,2.6-0.6,5.6-0.6,9v5.4c0,0.5,0,2.4,0,5.5
		c0,2.9,0.3,6.3,0.9,10.2c0,0.3,0.1,0.6,0.1,0.9c0.5,3.5,1.4,6.1,2.5,7.7c1.8,2.8,4.4,4.2,7.8,4.2c5.9,0,9.9-1.8,11.7-5.4
		c0.6-1.2,1.1-2.7,1.4-4.6c0.3-1.9,0.5-3.4,0.5-4.6c0-1.2,0-3.7,0-7.5c0-0.7,0-1.4,0-2c0-2.6-0.2-4.1-0.5-4.6l-0.2-0.1l-7.8-0.7
		c-1.7,0-3.1,0.3-4.1,1L67,28.2l0.1,3.2C67,31.8,67,32.5,67,33.7c0,1.2,0.1,2.1,0.4,2.6c0.2,0.5,0.7,0.8,1.4,0.8
		c0.7,0,1.2-0.1,1.4-0.3h1.4c0,3-0.4,5-1.2,5.9c-0.8,0.9-2.1,1.4-3.8,1.4c-2.3-0.9-3.5-4.6-3.5-10.9C63.2,20.3,64.1,13.3,66,12.4z"
		/>
	<path id="XMLID_516_" d="M42.6,13.5l4.8,0.1c3.3,0,5.1-0.4,5.3-1.1L53,4.4c0-1.4-0.1-2.4-0.4-3.2c-1.2-0.3-2.4-0.5-3.7-0.5L43,1.1
		c-1,0-3.2,0.1-6.4,0.2c-3.3,0.1-5.8,0.2-7.6,0.3l-0.3,0.3c-0.2,4.9-0.3,11-0.3,18.4l0.3,34c0,0.1,0.1,0.1,0.1,0.2
		c0.1,0.1,0.1,0.2,0.1,0.2c2.9,0.3,5.8,0.5,8.8,0.5l14.5-0.3c0.5-0.7,0.8-3,0.8-6.9c0-1.5,0-2.7-0.1-3.5v-0.2l-0.3-0.4
		c-1.5,0.1-2.6,0.2-3.3,0.2L38,43.5c-0.2-1.4-0.3-2.9-0.3-4.4c0-1.5,0.1-3.1,0.3-4.6c0.1-0.1,0.4-0.1,0.8-0.1c0.4,0,0.7-0.1,0.9-0.2
		l2.4,0.1c1.7,0,2.6-0.3,2.8-0.8c0-0.3-0.1-0.9-0.1-1.8l0.1-5.7c0-1.5-0.1-2.7-0.4-3.6l-3.4,0.1c-1.3,0-2.5-0.1-3.4-0.3
		c-0.2-0.8-0.2-1.8-0.2-2.8l0.2-5.5L42.6,13.5z"/>
	<path id="XMLID_517_" d="M24.1,1l-7.4,0.5c-0.3,0-0.6-0.1-1-0.2c-0.9,1.2-1.6,3.3-2.2,6.2c-0.6,3-1,4.9-1.3,5.7
		c-0.6-0.9-1.2-2.9-1.9-5.8S9,2.5,8.2,1.5L3.6,1.3C2,1.3,0.9,1.5,0.3,1.8L0.2,2.3L0,33.8v15.7c0,2,0.1,3.5,0.2,4.4
		c0.1,0.9,0.5,1.3,1,1.3l2.2-0.1l2.8,0.1c1.7,0,2.6-0.2,2.8-0.7c-0.4-8.3-0.6-14.2-0.6-17.8c0-3.6,0.1-6.7,0.2-9.3
		c0.1,0.3,0.2,0.6,0.3,1.1c1.3,5.4,2.3,8.1,3.2,8.1c0.9-1.2,1.7-3.5,2.5-6.9c0.4-1.6,0.7-2.7,0.8-3.4c0.3,4.7,0.5,11,0.5,18.9
		l-0.1,6.1c0,1.8,0.1,2.9,0.3,3.3c0.2,0.4,0.8,0.6,1.8,0.6l3.8-0.2l2.2,0.2l0.3-0.4l0.3-30.2L24.2,8.2c0-3,0-5.3,0.1-6.8L24.1,1z"/>
</g>
<g id="XMLID_11_">
	<path id="XMLID_518_" d="M131.7,114.4L131.7,114.4l0.3-0.4v-0.4L132,61.2v-1c-0.2-0.6-1.5-0.8-3.8-0.8c-2.3,0-3.9,0.3-4.7,0.8
		c-0.1,1.4-0.2,2.8-0.2,4.2l0.3,11.6c0,2-0.1,3.9-0.2,5.5c-0.8-1.9-1.7-4.3-2.6-7c-0.2-0.7-0.6-1.5-1-2.5c-0.4-1-0.7-1.8-0.9-2.4
		c0-0.6-0.5-2-1.5-4.3c-1-2.3-1.5-3.8-1.5-4.4c-0.3-0.7-1.8-1-4.5-1c-0.2-0.1-0.7-0.1-1.4-0.1c-0.7,0-1.4,0.2-2.1,0.7
		c-0.4,6.4-0.6,14-0.6,23l0.2,30.5c0.2,0.3,0.9,0.6,2,0.8c1.1,0.2,2.4,0.3,3.8,0.3c1.4,0,2.3-0.3,2.8-1c-0.1-1.5-0.2-5.1-0.2-10.9
		c0-5.8,0.1-10.3,0.3-13.7c0.3,1,0.8,2.6,1.3,4.7c0.6,2.1,1.1,4,1.6,5.5c0.5,1.6,1.4,4.2,2.7,7.9c1.3,3.7,2.1,5.9,2.3,6.5
		c0.1,0.1,0.2,0.2,0.2,0.2l5.3,0.4C130.6,114.8,131.3,114.7,131.7,114.4z"/>
	<path id="XMLID_519_" d="M93.5,107.7c1.3,3.7,2.1,5.9,2.3,6.5c0.1,0.1,0.2,0.2,0.2,0.2l5.3,0.4c0.8,0,1.4-0.1,1.8-0.4h0.1l0.3-0.4
		l-0.1-53.9c-0.2-0.6-1.5-0.8-3.8-0.8c-2.3,0-3.9,0.3-4.7,0.8c-0.1,1.4-0.2,2.8-0.2,4.2L95,76c0,2-0.1,3.9-0.2,5.5
		c-0.8-1.9-1.7-4.3-2.6-7c-0.2-0.7-0.6-1.5-1-2.5c-0.4-1-0.7-1.8-0.9-2.4c0-0.6-0.5-2-1.5-4.3c-1-2.3-1.5-3.8-1.5-4.4
		c-0.3-0.7-1.8-1-4.5-1c-0.2-0.1-0.7-0.1-1.4-0.1c-0.7,0-1.4,0.2-2.1,0.7c-0.4,6.4-0.6,14-0.6,23l0.2,30.5c0.2,0.3,0.9,0.6,2,0.8
		c1.1,0.2,2.4,0.3,3.8,0.3c1.4,0,2.3-0.3,2.8-1c-0.1-1.5-0.2-5.1-0.2-10.9c0-5.8,0.1-10.3,0.4-13.7c0.3,1,0.7,2.6,1.3,4.7
		c0.6,2.1,1.1,4,1.6,5.5C91.2,101.4,92.1,104,93.5,107.7z"/>
	<path id="XMLID_520_" d="M74.8,59.9L71.2,60l-6.5-0.5c-0.3,0.4-0.5,2.3-0.7,5.7c-0.1,3.4-0.2,6.4-0.2,9l0.3,27.1
		c0,4.8-0.1,9.1-0.2,13l0.5,0.3c0.3-0.1,0.7-0.2,1.3-0.2l5.9,0.5c1.6,0,2.7-0.4,3.3-1.2c-0.2-4.5-0.3-10.2-0.3-17L75,60.3L74.8,59.9
		z"/>
	<path id="XMLID_521_" d="M48.9,95.4c-1.6-8.1-2.3-17.6-2.3-28.3v-1.9c0-2.2-0.2-3.6-0.6-4.1c-0.4-0.5-1.7-0.8-4-0.8
		c-2.3,0-3.8,0.5-4.5,1.5c0.1,0.5,0.2,1.4,0.2,2.8l0.3,5.3c1.2,15.3,3.3,29.9,6.2,43.8c0.5,0.7,1.4,1,2.6,1l2.5-0.1
		c2,0,3.2-0.2,3.8-0.5c3.7-16.7,6.8-34.1,9.5-52.3l-0.2-0.5c-0.9-0.3-2.4-0.5-4.5-0.5l-2.1,0.1c-0.6,0-1.2-0.1-1.7-0.3h-0.2
		c0,0.1-0.1,0.1-0.1,0.1l-0.2,0.4c-0.2,0-1.2,7-3,21C49.9,88,49.3,92.5,48.9,95.4z"/>
	<path id="XMLID_522_" d="M160.2,61l-3.3-0.6c-3.2,0-5,0.3-5.5,0.8c-0.6,1.7-1.4,4.3-2.2,7.9c-0.8,3.6-1.6,6.3-2.2,8
		c-2-5.3-3.3-10.7-4.1-16.1c-0.1,0-0.1,0-0.1-0.1c-0.8-0.5-1.7-0.8-2.8-0.8c-3,0-4.8,0.3-5.3,1c0.7,3.7,2.3,9.6,5.1,17.8
		c1.2,4,1.9,6.6,2.1,7.9l0.3,18.1c0,3.8-0.1,6.9-0.3,9.4c0.5,0.5,1.4,0.7,2.8,0.7l4.9-0.3c0.5,0,0.8,0,1.1,0.1l0.4-0.2
		c-0.1-1.6-0.2-3.4-0.2-5.4c0.4-3.9,0.2-8.5,0.2-14.1l0.1-2.8l-0.1,0c0-1.6-0.3-3.3,0.1-5.1c2.2-11,7.5-20,9-26.2V61z"/>
	<path id="XMLID_525_" d="M20.7,79.9c-1.3,1.2-2.6,2.7-4,4.5l-2-20.3c-0.1,0-0.4,0.1-0.7,0.2c-0.4,0.1-0.8,0.2-1.2,0.4
		c-0.4,0.2-0.8,0.4-1.2,0.7c-0.3,0.3-0.5,0.6-0.5,0.9l2.4,20.9c-0.2-1-0.7-1.8-1.3-2.5c-0.8-0.7-1.7-1.1-2.8-1.3
		c-1.1-0.2-2.2-0.1-3.4,0.2c-1.2,0.3-2.3,1-3.2,2c-0.9,1-1.7,2.3-2.2,3.9c-0.5,1.6-0.7,3.6-0.4,5.8c0.3,2.6,0.7,4.8,1.4,6.6
		c0.6,1.9,1.5,3,2.6,3.4c1.1,0.4,2.6-0.2,4.3-1.7c1.8-1.5,4-4.4,6.6-8.5l0.7,12.7c0,0.6,0.3,1,0.8,1.1c0.5,0.1,1.1,0.1,1.7-0.2
		c0.6-0.3,1.2-0.6,1.6-1.1c0.5-0.5,0.7-1.1,0.6-1.7c-0.5-4.1-0.8-7.3-1-9.5c-0.2-2.2-0.4-3.8-0.4-4.8c-0.1-1,0-1.7,0-1.9
		c0.1-0.2,0.2-0.4,0.4-0.5c2.2-2.6,3.8-4.8,4.9-6.5c1.1-1.7,1.8-3,2.1-4c0.2-1,0.1-1.5-0.4-1.7c-0.5-0.2-1.2,0-2.1,0.5
		C23.1,77.9,22,78.7,20.7,79.9z M12.1,91.9c-0.3,0.7-0.8,1.5-1.3,2.4c-0.5,0.9-1.1,1.9-1.7,2.8c-0.6,1-1.2,1.9-1.8,2.6
		c-0.5,0.7-1,1.3-1.3,1.6c-0.3,0.4-0.5,0.3-0.5-0.3c-0.6,0-1.1-0.7-1.6-2.1c-0.5-1.4-0.8-2.9-0.9-4.5c-0.1-1.6,0.1-3.2,0.5-4.6
		c0.5-1.4,1.3-2.2,2.5-2.4c2-0.3,4.1,0.8,6.4,3.3C12.6,90.8,12.5,91.2,12.1,91.9z"/>
</g>
<g id="XMLID_9_">
	<path id="XMLID_547_" d="M2.4,133.8c0.3-0.8,0.5-1.6,0.8-2.3l0,0h3.8c0.2,0.8,0.5,1.6,0.7,2.3h2.4l-5-15.7l-5,15.7H2.4z M5,125.6
		l1,3.2h-2L5,125.6z"/>
	<path id="XMLID_550_" d="M17.8,126.9c0.5-0.9,0.7-1.8,0.7-2.9v-0.5c0-1.5-0.3-2.5-1.1-3.5c-0.8-1.1-1.8-1.6-2.9-1.6h-3.6l0,15.4
		h2.2v-6l2.8,6h2.7l-2.5-5.4C16.9,128.1,17.3,127.8,17.8,126.9z M15.7,125.2c-0.3,0.4-0.6,0.6-1,0.6l-1.6,0v-4.3h1.2
		c0.5,0,1,0.2,1.4,0.6c0.3,0.5,0.4,0.9,0.4,1.5C16.2,124.3,16,124.8,15.7,125.2z"/>
	<polygon id="XMLID_551_" points="26.3,121.5 26.3,118.4 19.7,118.4 19.7,133.9 21.9,133.9 26.3,133.9 26.3,130.8 21.9,130.8 
		21.9,127.7 25.2,127.7 25.2,124.6 21.9,124.6 21.9,121.5 	"/>
	<path id="XMLID_552_" d="M36.8,121.5c0.9,0,1.7,0.5,2.4,1.4l1.6-2.2c-0.5-0.7-1.1-1.3-1.8-1.7c-0.7-0.4-1.4-0.6-2.2-0.6l0,0
		c-1.5,0-2.9,0.8-4,2.3c-1.1,1.5-1.6,3.4-1.6,5.5c0,2.1,0.6,4,1.6,5.5s2.4,2.3,4,2.3c1.5,0,2.9-0.8,4-2.3c1.1-1.5,1.7-3.4,1.7-5.5
		c0-0.5,0-1.1-0.1-1.5h-1H40h-3.2v3.1H40c-0.2,0.9-0.6,1.7-1.2,2.2c-0.6,0.6-1.2,0.9-2,0.9c-0.9,0-1.7-0.5-2.4-1.4
		c-0.7-0.9-1-2-1-3.3c0-1.3,0.3-2.4,1-3.3C35.1,122,35.9,121.5,36.8,121.5z"/>
	<polygon id="XMLID_553_" points="49.9,121.5 49.9,118.4 43.2,118.4 43.2,133.9 45.4,133.9 49.9,133.9 49.9,130.8 45.4,130.8 
		45.4,127.7 48.8,127.7 48.8,124.6 45.4,124.6 45.4,121.5 	"/>
	<polygon id="XMLID_554_" points="55.8,133.9 55.8,121.5 58.5,121.5 58.5,118.4 55.8,118.4 53.5,118.4 50.8,118.4 50.8,121.5 
		53.5,121.5 53.5,133.9 	"/>
	<polygon id="XMLID_555_" points="64.3,121.5 67.1,121.5 67.1,118.4 64.3,118.4 62.1,118.4 59.3,118.4 59.3,121.5 62.1,121.5 
		62.1,133.9 64.3,133.9 	"/>
	<rect id="XMLID_556_" x="68.1" y="118.4" width="2.2" height="15.4"/>
	<polygon id="XMLID_574_" points="80.2,118.4 78,118.4 78,127 71.4,118.2 71.4,133.9 73.6,133.9 73.6,125.3 80.2,134.1 	"/>
	<path id="XMLID_575_" d="M90.6,131.7c1.1-1.5,1.7-3.4,1.7-5.5c0-0.5,0-1.1-0.1-1.5h-1h-1.3h-3.2v3.1h3.2c-0.2,0.9-0.6,1.7-1.2,2.2
		c-0.6,0.6-1.2,0.9-2,0.9c-0.9,0-1.7-0.5-2.4-1.4c-0.7-0.9-1-2-1-3.3c0-1.3,0.3-2.4,1-3.3c0.7-0.9,1.4-1.4,2.4-1.4
		c0.9,0,1.7,0.5,2.4,1.4l1.6-2.2c-0.5-0.7-1.1-1.3-1.8-1.7c-0.7-0.4-1.4-0.6-2.2-0.6l0,0c-1.5,0-2.9,0.8-4,2.3
		c-1.1,1.5-1.6,3.4-1.6,5.5c0,2.1,0.6,4,1.6,5.5s2.4,2.3,4,2.3C88.2,134,89.5,133.2,90.6,131.7z"/>
	<polygon id="XMLID_576_" points="108,133.9 108,118.2 102.6,128.5 97.2,118.2 97.2,133.9 99.4,133.9 99.4,127.5 102.6,133.6 
		105.8,127.5 105.8,133.9 	"/>
	<path id="XMLID_579_" d="M109.3,133.8h1.4h0.1h0.4l0.7-2.2l0-0.1h3.8l0,0.1l0.7,2.2h0.4h0.1h1.4h0.5l-5-15.7l-5,15.7H109.3z
		 M113.8,125.6l1,3.2h-2L113.8,125.6z"/>
	<path id="XMLID_582_" d="M126.6,126.9c0.5-0.9,0.7-1.8,0.7-2.9v-0.5c0-1.5-0.3-2.5-1.1-3.5c-0.8-1.1-1.8-1.6-2.9-1.6h-3.6l0,15.4
		h2.2v-6l2.8,6h2.7l-2.5-5.4C125.7,128.1,126.1,127.8,126.6,126.9z M124.5,125.2c-0.3,0.4-0.6,0.6-1,0.6l-1.6,0v-4.3h1.2
		c0.5,0,1,0.2,1.4,0.6c0.3,0.5,0.4,0.9,0.4,1.5C125,124.3,124.8,124.8,124.5,125.2z"/>
	<path id="XMLID_585_" d="M132.1,118.4h-3.6l0,15.4h2.2v-6l2.8,6h2.7l-2.5-5.4c0.7-0.4,1.1-0.6,1.6-1.6c0.5-0.9,0.7-1.8,0.7-2.9
		v-0.5c0-1.5-0.3-2.5-1.1-3.5C134.2,118.9,133.2,118.4,132.1,118.4z M133.3,125.2c-0.3,0.4-0.6,0.6-1,0.6l-1.6,0v-4.3h1.2
		c0.5,0,1,0.2,1.4,0.6c0.3,0.5,0.4,0.9,0.4,1.5C133.8,124.3,133.6,124.8,133.3,125.2z"/>
	<rect id="XMLID_586_" x="137.3" y="118.4" width="2.2" height="15.4"/>
	<polygon id="XMLID_587_" points="147.2,121.5 147.2,118.4 140.6,118.4 140.6,133.9 142.8,133.9 147.2,133.9 147.2,130.8 
		142.8,130.8 142.8,127.7 146.1,127.7 146.1,124.6 142.8,124.6 142.8,121.5 	"/>
	<path id="XMLID_590_" d="M151,118.5L151,118.5l-2.7,0v15.4h2.7c1.5,0,3-0.8,4-2.3c2-2.7,2-8.1,0-10.9
		C154,119.2,152.5,118.5,151,118.5z M153.4,129.5c-0.6,0.9-1.5,1.3-2.4,1.3h0h-0.5v-9.2h0.5c0.9,0,1.8,0.4,2.4,1.3
		c0.7,0.9,0.9,2.1,0.9,3.4C154.3,127.4,154.1,128.6,153.4,129.5z"/>
	<path id="XMLID_591_" d="M160,118.4h-2.6c0.1,3.7,0.3,7.1,0.4,10.9h1.9L160,118.4z"/>
	<path id="XMLID_592_" d="M158.8,134.2c0.8,0,1.4-0.8,1.4-1.9s-0.6-2-1.4-2c-0.8,0-1.4,0.8-1.4,1.9S158,134.2,158.8,134.2z"/>
</g>
<g id="XMLID_8_">
	<g id="XMLID_7_">
		<path id="XMLID_595_" d="M56.1,151.2c0,0.3,0.1,0.5,0.3,0.7c0.2,0.2,0.4,0.3,0.6,0.3c0.2,0,0.5,0,0.7,0c0.3-0.1,0.5-0.2,0.6-0.4
			c0.5,0,1-0.2,1.4-0.5c0.5-0.3,0.9-0.6,1.3-1c0.4-0.4,0.7-0.8,1-1.3c0.3-0.5,0.5-0.9,0.6-1.4c0.1-0.4,0.1-0.9,0.1-1.2
			c-0.1-0.4-0.3-0.7-0.6-0.9c-0.5-0.3-1-0.4-1.6-0.3c-0.5,0.1-1,0.4-1.5,0.7c-0.5,0.4-0.9,0.8-1.3,1.4c-0.4,0.5-0.7,1.1-0.9,1.6
			c-0.2-0.6-0.4-1.2-0.5-1.8c-0.1-0.7-0.2-1.3-0.2-2c0-0.7,0-1.3,0.1-1.9c0.1-0.6,0.2-1.1,0.4-1.6c0.1-0.2,0.2-0.3,0.3-0.6
			c0.1-0.2,0.2-0.4,0.2-0.6c0-0.2,0-0.4-0.1-0.5c-0.1-0.2-0.2-0.3-0.5-0.3c-0.2,0-0.4,0-0.6,0c-0.2,0-0.4,0-0.6,0.1
			c-0.2,0-0.3,0.1-0.4,0.2c-0.1,0.1,0,0.2,0.1,0.4c0,0,0,0.1,0.1,0.1c-0.3,0.7-0.6,1.5-0.8,2.6c-0.2,1-0.3,2.1-0.3,3.1
			c0,1.1,0.2,2.1,0.5,3C54.8,149.9,55.4,150.6,56.1,151.2z M59.1,149.2c0.2-0.4,0.4-0.8,0.6-1.2c0.2-0.4,0.5-0.8,0.8-1.1
			c0.3-0.3,0.6-0.6,0.9-0.8c0.2,0.4,0.2,0.7,0.1,1.2c-0.1,0.4-0.3,0.8-0.6,1.2c-0.3,0.4-0.6,0.8-1,1.1c-0.4,0.3-0.8,0.6-1.2,0.7
			C58.8,150,58.9,149.7,59.1,149.2z"/>
		<path id="XMLID_596_" d="M65.6,152.4c0.3,0.1,0.5,0.1,0.9,0c0.4-0.2,0.5-0.5,0.4-0.7c-0.2-0.3-0.4-0.4-0.8-0.5
			c-0.2,0-0.4,0-0.6,0.1c-0.2,0.1-0.3,0.2-0.3,0.5v0.1C65.2,152.1,65.3,152.3,65.6,152.4z"/>
		<path id="XMLID_597_" d="M69.3,140.8l1.2-0.5c0,0.1,0,0.4,0,0.8c0,0.4,0,1,0,1.6c0,0.7,0,1.4,0.1,2.2c0,0.8,0,1.7,0.1,2.5
			c0,0.9,0,1.7,0,2.5c0,0.8,0,1.6,0,2.3c0,0.2,0.1,0.3,0.3,0.4c0.2,0.1,0.4,0.1,0.7,0.1c0.2,0,0.5-0.1,0.7-0.1
			c0.2-0.1,0.3-0.2,0.3-0.4l-0.1-12.9c0-0.2-0.1-0.3-0.3-0.4c-0.1-0.1-0.3-0.2-0.5-0.3c-0.2-0.1-0.4-0.1-0.6-0.1
			c-0.2,0-0.4,0.1-0.6,0.2c-0.3,0.2-0.7,0.4-1.1,0.6c-0.4,0.2-0.8,0.5-1.2,0.7c-0.1,0.2-0.1,0.3,0.2,0.5
			C68.8,140.9,69,140.9,69.3,140.8z"/>
		<path id="XMLID_600_" d="M77.1,141.7c-0.3,0.7-0.6,1.5-0.7,2.3c-0.1,0.8-0.2,1.4-0.1,2c0,0.5,0.1,1.1,0.3,1.9
			c0.1,0.7,0.4,1.4,0.8,2.1c0.4,0.7,0.9,1.2,1.5,1.7c0.6,0.5,1.4,0.7,2.4,0.7c1.1,0,1.9-0.2,2.7-0.6c0.7-0.4,1.3-1,1.7-1.6
			c0.4-0.7,0.7-1.4,0.8-2.3c0.1-0.8,0.2-1.7,0.1-2.5c-0.1-0.6-0.2-1.3-0.5-2.1c-0.3-0.7-0.6-1.4-1.1-2.1c-0.5-0.7-1.1-1.2-1.8-1.6
			c-0.7-0.4-1.5-0.6-2.4-0.6c-0.9,0-1.7,0.3-2.3,0.8C78,140.3,77.5,140.9,77.1,141.7z M79.1,142.9c0.2-0.6,0.4-1.1,0.7-1.5
			c0.3-0.4,0.6-0.8,1-1c0.4-0.2,0.7-0.4,1-0.5c0.6,0.1,1.1,0.4,1.5,0.9c0.4,0.5,0.7,1,1,1.5c0.3,0.6,0.5,1.1,0.6,1.7s0.2,1,0.2,1.4
			c0,0.5,0,1.1,0,1.7c-0.1,0.6-0.2,1.2-0.4,1.8c-0.2,0.6-0.5,1.1-0.9,1.5c-0.4,0.4-0.9,0.7-1.5,0.9c-0.7,0-1.3-0.2-1.8-0.6
			c-0.5-0.4-0.9-0.9-1.2-1.5c-0.3-0.6-0.5-1.3-0.6-2c-0.1-0.7-0.1-1.5-0.1-2.2C78.8,144.2,78.9,143.6,79.1,142.9z"/>
		<path id="XMLID_601_" d="M89.7,152.4c0.3,0.1,0.5,0.1,0.9,0c0.4-0.2,0.5-0.5,0.4-0.7c-0.2-0.3-0.4-0.4-0.8-0.5
			c-0.2,0-0.4,0-0.6,0.1c-0.2,0.1-0.3,0.2-0.3,0.5v0.1C89.3,152.1,89.5,152.3,89.7,152.4z"/>
		<path id="XMLID_602_" d="M93.5,140.8l1.2-0.5c0,0.1,0,0.4,0,0.8c0,0.4,0,1,0,1.6c0,0.7,0,1.4,0.1,2.2c0,0.8,0,1.7,0.1,2.5
			c0,0.9,0,1.7,0,2.5c0,0.8,0,1.6,0,2.3c0,0.2,0.1,0.3,0.3,0.4c0.2,0.1,0.4,0.1,0.7,0.1c0.2,0,0.5-0.1,0.7-0.1
			c0.2-0.1,0.3-0.2,0.3-0.4l-0.1-12.9c0-0.2-0.1-0.3-0.3-0.4c-0.1-0.1-0.3-0.2-0.5-0.3c-0.2-0.1-0.4-0.1-0.6-0.1
			c-0.2,0-0.4,0.1-0.6,0.2c-0.3,0.2-0.7,0.4-1.1,0.6c-0.4,0.2-0.8,0.5-1.2,0.7c-0.1,0.2-0.1,0.3,0.2,0.5
			C92.9,140.9,93.2,140.9,93.5,140.8z"/>
		<path id="XMLID_603_" d="M104.1,152.2c0.1-0.7,0.2-1.5,0.5-2.4c0.2-0.9,0.5-1.9,0.8-3c0.3-1,0.5-2.1,0.7-3.2
			c0.2-1.1,0.3-2.1,0.3-3c0-0.6-0.3-1-0.9-1.2c-0.6-0.2-1.3-0.4-2.2-0.4c-0.8,0-1.6,0.1-2.4,0.3c-0.8,0.2-1.3,0.4-1.5,0.7
			c-0.1,0.3-0.1,0.5,0.2,0.6c0.2,0.1,0.5,0.1,0.8,0c0.3-0.1,0.6-0.2,1-0.2c0.4-0.1,0.8-0.1,1.1-0.1c0.4,0,0.7,0,1,0
			c0.3,0,0.5,0.1,0.7,0.2c0.2,0.3,0.3,0.7,0.3,1.3s-0.1,1.2-0.2,2c-0.1,0.7-0.2,1.5-0.4,2.3c-0.2,0.8-0.3,1.6-0.4,2.4
			c-0.1,0.8-0.3,1.5-0.4,2.2c-0.1,0.7-0.1,1.2-0.1,1.6c0.1,0.3,0.3,0.4,0.6,0.3C103.9,152.6,104.1,152.4,104.1,152.2z"/>
	</g>
	<path id="XMLID_608_" d="M151.3,147.2c2.9,0,4.8,0.1,5.7,0.3l1.1-0.7c-0.8-0.5-1.3-0.8-1.6-0.8l-3.2,0.3l-5.4-0.1l-16.8,0.1l-4.5,0
		l-14.3,0l0.2,0.5c0,0,0.3,0.2,0.9,0.4l37.4,0H151.3z"/>
	<path id="XMLID_609_" d="M47.9,146.8c-0.8-0.5-1.3-0.8-1.6-0.8l-3.2,0.3l-5.4-0.1l-16.8,0.1l-4.5,0l-14.3,0l0.2,0.5
		c0,0,0.3,0.2,0.9,0.4l37.4,0h0.5c2.9,0,4.8,0.1,5.7,0.3L47.9,146.8z"/>
</g>
</g>
</svg>
